<svg width="51" height="9" viewBox="0 0 51 9" fill="none" xmlns="http://www.w3.org/2000/svg">
<path d="M1.272 1.52C1.272 1.112 1.216 0.812 1.104 0.62C0.992 0.42 0.768 0.319999 0.432 0.319999H0.192V0.0799997H5.304C5.984 0.0799997 6.324 0.4 6.324 1.04V1.94H6.084C6.084 1.02 5.584 0.56 4.584 0.56H2.352V3.68H5.592V4.16H2.352V7.52H4.452C5.004 7.52 5.436 7.42 5.748 7.22C6.06 7.02 6.308 6.68 6.492 6.2L6.732 6.26L6.312 7.4C6.168 7.8 5.868 8 5.412 8H1.272V1.52ZM12.9908 1.52C12.9908 1.112 12.9348 0.812 12.8228 0.62C12.7108 0.42 12.4868 0.319999 12.1508 0.319999H11.9108V0.0799997H15.0308C15.7988 0.0799997 16.4908 0.244 17.1068 0.572C17.7228 0.9 18.0308 1.536 18.0308 2.48C18.0308 3.104 17.8708 3.584 17.5508 3.92C17.2308 4.256 16.8708 4.48 16.4708 4.592C16.0788 4.704 15.7188 4.76 15.3908 4.76H14.0708V8H12.9908V1.52ZM14.9708 4.34C15.2268 4.34 15.4988 4.276 15.7868 4.148C16.0748 4.012 16.3188 3.8 16.5188 3.512C16.7268 3.224 16.8308 2.86 16.8308 2.42C16.8308 1.98 16.7268 1.616 16.5188 1.328C16.3188 1.04 16.0748 0.832 15.7868 0.704C15.4988 0.568 15.2268 0.5 14.9708 0.5C14.6908 0.5 14.3908 0.54 14.0708 0.62V4.22C14.3908 4.3 14.6908 4.34 14.9708 4.34ZM19.2518 1.52C19.2518 1.112 19.1958 0.812 19.0838 0.62C18.9718 0.42 18.7478 0.319999 18.4118 0.319999H18.1718V0.0799997H19.2518C19.5478 0.0799997 19.7678 0.12 19.9118 0.2C20.0638 0.272 20.1718 0.408 20.2358 0.607999C20.2998 0.808 20.3318 1.112 20.3318 1.52V8H19.2518V1.52ZM23.4541 8.12C23.1981 8.12 22.9381 8.068 22.6741 7.964C22.4101 7.852 22.1821 7.672 21.9901 7.424C21.8061 7.176 21.7141 6.848 21.7141 6.44C21.7141 5.832 21.9941 5.4 22.5541 5.144C23.1221 4.888 23.8621 4.76 24.7741 4.76H25.1341C25.1341 3.976 25.0261 3.44 24.8101 3.152C24.5941 2.864 24.2821 2.72 23.8741 2.72C23.5141 2.72 23.2261 2.796 23.0101 2.948C22.7941 3.1 22.6421 3.364 22.5541 3.74H22.0141C22.0141 3.468 22.0301 3.256 22.0621 3.104C22.0941 2.944 22.1781 2.796 22.3141 2.66C22.4581 2.516 22.6941 2.412 23.0221 2.348C23.3581 2.276 23.7221 2.24 24.1141 2.24C24.7621 2.24 25.2741 2.416 25.6501 2.768C26.0261 3.112 26.2141 3.776 26.2141 4.76V8H25.6141L25.1941 7.46H25.1341C24.9901 7.644 24.7781 7.8 24.4981 7.928C24.2181 8.056 23.8701 8.12 23.4541 8.12ZM23.9941 7.58C24.2581 7.58 24.4781 7.516 24.6541 7.388C24.8301 7.26 24.9901 7.084 25.1341 6.86V5.24H24.7741C24.1821 5.24 23.7141 5.352 23.3701 5.576C23.0261 5.792 22.8541 6.08 22.8541 6.44C22.8541 6.808 22.9621 7.092 23.1781 7.292C23.4021 7.484 23.6741 7.58 23.9941 7.58ZM28.0674 3.8C28.0674 3.392 28.0114 3.092 27.8994 2.9C27.7874 2.7 27.5634 2.6 27.2274 2.6H26.9874V2.36H28.0674C28.3634 2.36 28.5874 2.4 28.7394 2.48C28.8994 2.56 29.0154 2.68 29.0874 2.84H29.1474C29.3154 2.672 29.5314 2.532 29.7954 2.42C30.0674 2.3 30.3714 2.24 30.7074 2.24C31.3074 2.24 31.7954 2.4 32.1714 2.72C32.5554 3.04 32.7474 3.6 32.7474 4.4V8H31.6674V4.4C31.6674 3.84 31.5394 3.432 31.2834 3.176C31.0354 2.912 30.7234 2.78 30.3474 2.78C29.9234 2.78 29.5234 2.992 29.1474 3.416V8H28.0674V3.8ZM43.1381 8.12C42.5941 8.12 42.1341 7.992 41.7581 7.736C41.3821 7.472 41.0981 7.12 40.9061 6.68C40.7141 6.232 40.6181 5.732 40.6181 5.18C40.6181 4.636 40.7141 4.14 40.9061 3.692C41.0981 3.244 41.3741 2.892 41.7341 2.636C42.1021 2.372 42.5301 2.24 43.0181 2.24C43.8261 2.24 44.4261 2.468 44.8181 2.924C45.2181 3.372 45.4181 4.024 45.4181 4.88L45.3941 5.36H41.7581C41.7581 6.032 41.9021 6.58 42.1901 7.004C42.4781 7.428 42.8741 7.64 43.3781 7.64C43.7541 7.64 44.0701 7.56 44.3261 7.4C44.5901 7.24 44.8341 7 45.0581 6.68L45.2981 6.86C45.0341 7.3 44.7261 7.62 44.3741 7.82C44.0221 8.02 43.6101 8.12 43.1381 8.12ZM44.2781 4.88C44.2781 4.176 44.1741 3.64 43.9661 3.272C43.7581 2.904 43.4421 2.72 43.0181 2.72C42.7781 2.72 42.5621 2.816 42.3701 3.008C42.1781 3.192 42.0261 3.448 41.9141 3.776C41.8101 4.104 41.7581 4.472 41.7581 4.88H44.2781ZM46.8975 3.8C46.8975 3.392 46.8415 3.092 46.7295 2.9C46.6175 2.7 46.3935 2.6 46.0575 2.6H45.9375V2.36H46.8975C47.2015 2.36 47.4295 2.404 47.5815 2.492C47.7415 2.572 47.8535 2.708 47.9175 2.9H47.9775C48.1215 2.716 48.3135 2.56 48.5535 2.432C48.8015 2.304 49.0895 2.24 49.4175 2.24C49.7375 2.24 49.9775 2.3 50.1375 2.42C50.2735 2.524 50.4135 2.704 50.5575 2.96L50.0775 3.32C49.9895 3.2 49.8615 3.112 49.6935 3.056C49.5255 2.992 49.3335 2.96 49.1175 2.96C48.8775 2.96 48.6575 3.016 48.4575 3.128C48.2575 3.232 48.0975 3.376 47.9775 3.56V8H46.8975V3.8Z" fill="black"/>
<path d="M7.87012 4.4H10.9301V5.24H7.87012V4.4ZM34.5948 3.8C34.5948 3.392 34.5388 3.092 34.4268 2.9C34.3148 2.7 34.0908 2.6 33.7548 2.6H33.5148V2.36H34.5948C34.8908 2.36 35.1148 2.4 35.2668 2.48C35.4268 2.56 35.5428 2.68 35.6148 2.84H35.6748C35.8428 2.672 36.0588 2.532 36.3228 2.42C36.5948 2.3 36.8988 2.24 37.2348 2.24C37.8348 2.24 38.3228 2.4 38.6988 2.72C39.0828 3.04 39.2748 3.6 39.2748 4.4V8H38.1948V4.4C38.1948 3.84 38.0668 3.432 37.8108 3.176C37.5628 2.912 37.2508 2.78 36.8748 2.78C36.4508 2.78 36.0508 2.992 35.6748 3.416V8H34.5948V3.8Z" fill="#FE3E01"/>
</svg>
